<?xml version="1.0" encoding="utf-8"?>
<svg xmlns="http://www.w3.org/2000/svg" width="305" height="642" fill="none"><g fill="#f7d7cb"><path d="M116.751 116.184l-80.204 1.21-1.696 29.749 82.073-.506"/><path d="M34.834 72.623l7.539-10.853c1.656-2.103 1.293-3.891-.804-5.551s-5.15-1.297-6.806.806l-1.538 1.961-1.136-8.214-.757-6.427c-.315-2.664-2.721-4.57-5.378-4.253s-4.558 2.727-4.243 5.392c-.316-2.664-2.721-4.569-5.379-4.253-2.429.285-4.227 2.34-4.266 4.72-.599-2.309-2.815-3.882-5.252-3.597-2.658.316-4.558 2.727-4.243 5.392l1.002 8.459a2.8 2.8 0 0 0 .276.925l9.053 76.45C13.904 142.036 20.86 147.08 30 147.08l14.542-.095-9.708-74.362z"/></g><path d="M234.24 409.64c-.095-9.993-14.764-85.953-19.164-111.22-5.032-28.864-9.937-50.937-24.811-84.109l-3.351-2.19-15.868 11.55-26.971-8.918 1.569 8.143h-10.851c-9.961-3.091-26.577-8.372-26.609-9.147l-4.795 9.147h-.055v.119l-.079.158c-15 28.896-17.507 42.407-19.96 73.318C81 325.506 93.05 556.079 95.527 598.533l41.166 1.834 12.185-301.63 28.84 113.875 51.08 187.992 39.913-2.015L234.24 409.64z" fill="#897df2"/><path d="M200.328 213.497l-5.023-9.582c-.032.791-86.821 3.075-86.853 2.285l-5.023 9.582c-15.26 29.409-19.401 43.158-21.893 74.615-.797 10.009.221 43.434 2.011 84.94l134.455.071 12.894-.071c-.954-46.107-9.172-128.035-30.568-161.84z" fill="#724bfe"/><path d="M245.037 315.616l-27.988 3.7-26.136-198.578c-.126-.965.56-1.858 1.538-1.985l5.584-.735c11.396-1.51 21.837 7.993 23.328 19.29l23.674 178.308z" fill="#f7d7cb"/><path d="M222.56 137.767c-1.806-13.701-10.969-23.141-27.878-23.386l-52.83.151h-21.388l-55.788.426v31.584l34.724.941v5.186c-.008 16.16 2.169 32.256 6.467 47.83l3.399 12.318h82.957l8.288-37.158 27.571-3.96-5.521-33.932z" fill="#f2f2f3"/><path d="M210.528 306.146l2.768-3.732c.024-.032.079-.016.079.024l2.248 17.061c.331 2.545 2.705 4.632 5.268 4.632 3.344 0 5.717-2.719 5.284-6.04l-.056-.419c.387 2.918 3.06 4.973 5.97 4.594l.182-.024c2.515-.332 4.385-2.38 4.605-4.807.008-.047.056-.055.079-.016.915 2.151 3.163 3.518 5.592 3.202a5.33 5.33 0 0 0 4.582-5.985l-2.461-18.215-6.483-49.277c0-.023-.023-.039-.047-.039l-31.458 4.127c-.024 0-.04.024-.04.047l4.716 35.853c0 .008 0 .024-.008.032l-9.353 12.61c-1.751 2.363-1.262 5.708 1.096 7.463a5.3 5.3 0 0 0 7.437-1.091z" fill="#3ed6d2"/><path d="M226.182 320.946c-.268 0-.505-.198-.552-.467l-2.082-13.147a.56.56 0 0 1 .465-.641.56.56 0 0 1 .639.467l2.082 13.147c.047.301-.158.593-.465.641h-.087zm10.672-1.02c-.268 0-.505-.198-.552-.467l-2.082-13.147a.56.56 0 0 1 .465-.641c.3-.055.591.158.639.467l2.082 13.147c.047.301-.158.593-.466.641h-.086z" fill="#1d1d1d"/><g fill="#724bfe"><path d="M193.531 112.8H178.5v49.483h15.031V112.8z"/><path d="M203.17 151.918l-.047-.379H99.102l-.047.379c-1.83 14.499-.584 29.228 3.659 43.205l11.995 39.49H187.5l11.995-39.49c4.259-13.985 5.513-28.706 3.675-43.205z"/><path d="M122.581 113.646h-14.708v48.4h14.708v-48.4z"/></g><path d="M151.148 211.892c-23.131 0-41.884-18.8-41.884-41.988v-1.336h83.761v1.336c0 23.188-18.754 41.988-41.877 41.988z" fill="#897df2"/><path d="M192.222 182.553h-82.207c-.315 0-.568-.253-.568-.569s.253-.569.568-.569h82.207c.316 0 .568.253.568.569s-.252.569-.568.569z" fill="#1d1d1d"/><path d="M82.736 292.982l.008-.435-.008.435zm69.88-57.332l-.016.008v-.073c.008.025.008.041.016.065z" fill="#5a30f0"/><path d="M22.964 56.289c-.268 0-.497-.198-.536-.474l-1.561-12.539a.54.54 0 0 1 .465-.601c.292-.032.56.174.599.466l1.561 12.539a.54.54 0 0 1-.465.601c-.024.008-.039.008-.063.008zm-9.33 1.107a.53.53 0 0 1-.528-.474l-1.577-12.539a.54.54 0 0 1 .465-.601.54.54 0 0 1 .599.466l1.577 12.539a.54.54 0 0 1-.465.601c-.024 0-.047.008-.071.008zM23.856 69.8c-.126 0-.252-.039-.355-.126-.237-.198-.268-.546-.071-.783l5.489-6.601a.55.55 0 0 1 .781-.071c.237.198.268.545.071.783l-5.489 6.601c-.11.134-.268.198-.426.198z" fill="#1d1d1d"/><path d="M35.979 54.712l-2.616 3.462c-.022.029-.074.014-.073-.023l-1.958-15.953c-.288-2.38-2.488-4.349-4.882-4.37-3.123-.028-5.363 2.493-4.985 5.597l.048.392c-.337-2.728-2.817-4.67-5.538-4.339l-.17.021c-2.352.289-4.115 2.186-4.341 4.451-.008.044-.052.051-.074.014-.837-2.016-2.924-3.312-5.196-3.037a4.98 4.98 0 0 0-4.329 5.551l2.147 17.033 5.646 46.077c0 .022.022.037.044.037l29.415-3.593c.022 0 .037-.022.037-.044l-4.107-33.525c0-.007 0 1.249.008 1.242l8.84-12.971c1.655-2.193 1.226-5.321-.962-6.979a4.95 4.95 0 0 0-6.955.957z" fill="#3ed6d2"/><path d="M21.48 40.759a.53.53 0 0 1 .512.44l1.836 12.297c.042.281-.152.553-.44.594-.28.042-.551-.153-.593-.441l-1.836-12.297c-.042-.281.152-.552.44-.594h.081zm-9.975.866a.53.53 0 0 1 .512.44l1.836 12.297c.042.281-.152.552-.44.594a.52.52 0 0 1-.593-.441l-1.836-12.296c-.042-.281.152-.553.44-.594l.081.001z" fill="#1d1d1d"/><g fill="#5a30f0"><path d="M146.402 192.864c-.118-.198-.181-.048-.213-.064.221.293.237.04.213.064zm.736 3.69c-.008-.032-.016-.056-.032-.087-.031.198-.047.404-.11.602.071-.167.095-.349.142-.515z"/><path d="M126.19 215.402l-.024-.008c.081.049.064.04.024.008zm20-23.243l-.079.237.371.182c-.095-.103-.268-.308-.292-.419z"/></g><path d="M282.246 618.393h-8.778l-4.322-20.65-40.875 2.514 7.382 38.446 28.982-.79h39.101c0-2.767-.804-5.558-2.161-8.143-3.738-7.124-11.301-11.377-19.329-11.377z" fill="#3ed6d2"/><g fill="#1d1d1d"><path d="M235.455 637.913l.615 4.087h67.641v-4.087h-68.256z"/><path d="M247.834 641.984h-.023a.56.56 0 0 1-.529-.585c.308-6.752-1.388-12.27-4.897-15.954-2.839-2.973-6.798-4.617-11.151-4.617-.308 0-.56-.253-.56-.562a.56.56 0 0 1 .56-.561c4.661 0 8.911 1.763 11.955 4.957 3.731 3.913 5.529 9.708 5.213 16.768-.023.317-.268.554-.568.554zm44.62-15.923a.46.46 0 0 1-.173-.031.56.56 0 0 1-.355-.704c1.159-3.486 4.243-4.688 4.377-4.736.284-.102.607.04.717.325s-.031.608-.323.719c-.024.008-2.729 1.083-3.714 4.048a.56.56 0 0 1-.529.379zm3.494 2.902a.44.44 0 0 1-.173-.032.56.56 0 0 1-.355-.704c1.159-3.486 4.243-4.688 4.377-4.735.284-.103.607.039.718.324s-.032.609-.324.719c-.023.008-2.728 1.084-3.714 4.048a.56.56 0 0 1-.529.38z"/></g><path d="M85.115 618.393h9.897l.047-20.65 41.995.933-.402 39.237h-73.02c0-2.767.804-5.558 2.161-8.143 3.73-7.124 11.301-11.377 19.322-11.377z" fill="#3ed6d2"/><g fill="#1d1d1d"><path d="M63.646 642h73.107v-4.087H63.646V642z"/><path d="M120.312 641.984c-.308 0-.56-.253-.56-.562 0-9.771 7.918-21.709 17.169-21.709.307 0 .559.253.559.561s-.252.562-.559.562c-7.224 0-16.057 9.502-16.057 20.586a.55.55 0 0 1-.552.562zm-45.407-15.923a.56.56 0 0 1-.528-.379c-.986-2.965-3.691-4.04-3.715-4.048-.284-.111-.434-.435-.323-.719s.426-.427.718-.325c.134.048 3.218 1.25 4.377 4.736a.56.56 0 0 1-.355.704c-.055.023-.111.031-.174.031zm-3.494 2.902a.56.56 0 0 1-.528-.38c-.986-2.964-3.691-4.04-3.714-4.048a.56.56 0 0 1-.323-.719c.11-.285.434-.427.718-.324.134.047 3.218 1.249 4.377 4.735a.56.56 0 0 1-.355.704.66.66 0 0 1-.174.032zm96-604.882c.276-1.233.434-2.506.434-3.818C167.845 9.076 158.792 0 147.632 0c-11.167 0-20.212 9.076-20.212 20.263a17.45 17.45 0 0 0 .434 3.819c-10.836 3.992-18.565 14.428-18.565 26.674v2.134c0 13.424 10.86 24.31 24.251 24.31h28.185c13.391 0 24.251-10.886 24.251-24.31v-2.134c0-12.246-7.729-22.682-18.565-26.674z"/></g><g fill="#f7d7cb"><path d="M136.82 103.385v12.301c0 7.748 6.767 14.033 15.118 14.033s15.119-6.277 15.119-14.033v-12.301H136.82zm42.17-25.058c.892-5.512-2.842-10.706-8.341-11.601s-10.68 2.849-11.572 8.361 2.842 10.706 8.34 11.601 10.68-2.849 11.573-8.361z"/><path d="M167.054 104.261h-26.293c-11.798 0-21.365-9.589-21.365-21.416V39.995h47.658v64.266z"/></g><path d="M116.484 59.191s18.059.49 29.605-18.175c0 0 1.072 16.484 22.949 20.982l9.566-16.017-12.082-12.847-40.457-5.961-12.413 22.437 2.832 9.582z" fill="#1d1d1d"/><path d="M167.918 81.422c.197-1.075 1.459-2.83 2.871-2.83a2.15 2.15 0 0 1 .323.024c1.183.182 1.719 1.368 1.719 2.807 0 1.312-.449 2.411-1.427 2.735-.19.063-.395.095-.615.095-1.459 0-2.674-1.755-2.871-2.83z" fill="#5a30f0"/><path d="M129.362 67.919c-.544 0-.962-.016-1.845-.04l-2.279-.063c-.308-.008-.552-.261-.544-.569a.54.54 0 0 1 .567-.545l2.287.063 4.07.008 1.372-.024c.331-.016.56.237.568.546s-.237.561-.544.569l-1.373.024-2.279.032zm22.131-3.621a.57.57 0 0 1-.316-.095c-1.963-1.352-4.976-1.447-7.484-.237-.276.134-.607.016-.741-.261s-.016-.609.26-.743c2.855-1.376 6.309-1.249 8.596.324a.56.56 0 0 1 .142.775c-.102.15-.276.237-.457.237zm-12.091 17.243c-3.478 0-3.478-2.522-3.478-4.546v-2.712c0-.308.252-.561.56-.561s.56.253.56.561v2.712c0 2.316.102 3.431 2.366 3.431.307 0 .56.253.56.561s-.261.553-.568.553zm-11.499-6.918c1.176 0 2.129-.956 2.129-2.134s-.953-2.135-2.129-2.135-2.13.956-2.13 2.135.954 2.134 2.13 2.134zm17.396 0c1.176 0 2.13-.956 2.13-2.134s-.954-2.135-2.13-2.135-2.129.956-2.129 2.135a2.13 2.13 0 0 0 2.129 2.134zm-3.312 15.709c-1.12 0-2.184-.34-3.02-.98-.245-.19-.292-.538-.103-.783s.537-.293.781-.103c.82.632 1.948.878 3.091.688.868-.142 1.452-.506 1.641-.791.165-.253.512-.332.773-.158.26.166.331.514.157.775-.41.617-1.301 1.099-2.389 1.281-.308.04-.615.071-.931.071z" fill="#1d1d1d"/><g fill="#3ed6d2"><path d="M118.823 76.277c16.32 3.178 28.648 1.907 45.75-4.449 1.683 6.829 1.866 15.666 1.866 15.666-2.791 8.746-15.056 20.136-29.189 18.659-18.861-1.97-20.317-22.469-18.427-29.875z"/><path d="M162.484 75.04l.035.258.256-.045 1.086-.192-.039-.243c-.004-.032-.096-.742-.011-1.716.087-.999.356-2.254 1.074-3.337.881-1.329 2.275-2.165 4.177-2.471l.239-.038-.031-.24-.153-1.195-.254.041c-2.253.359-3.974 1.391-5.085 3.072-1.761 2.662-1.316 5.945-1.294 6.106v.002z" stroke="#3ed6d2" stroke-width=".5"/></g></svg>